<svg width="184" height="41" viewBox="0 0 184 41" fill="none" xmlns="http://www.w3.org/2000/svg">
<path d="M179.851 30.5889C179.17 30.5889 178.333 30.372 177.59 29.6284C177.187 29.2256 176.629 28.482 176.629 27.3666C176.629 26.2512 177.187 25.5076 177.59 25.1048C178.333 24.3612 179.17 24.1443 179.851 24.1443C180.626 24.1443 181.463 24.4541 182.144 25.1358C182.671 25.6625 183.043 26.3441 183.043 27.3666C183.043 28.389 182.671 29.0707 182.113 29.6284C181.463 30.279 180.657 30.5889 179.851 30.5889Z" fill="#E5A500"/>
<path d="M173.431 7.41309V30.0001H168.474V28.4819C167.08 30.2789 165.252 30.4648 164.291 30.4648C162.308 30.4648 160.728 29.8142 159.427 28.5439C158.033 27.1806 157.196 25.2286 157.196 23.0288C157.196 20.674 158.188 18.7531 159.458 17.5447C160.821 16.2434 162.649 15.6857 164.353 15.6857C166.243 15.6857 167.576 16.5222 168.474 17.4827V7.41309H173.431ZM165.438 26.2511C166.243 26.2511 167.049 25.8793 167.576 25.4145C168.226 24.8258 168.629 23.8963 168.629 23.0598C168.629 22.2852 168.195 21.3557 167.699 20.829C167.142 20.2403 166.367 19.8995 165.438 19.8995C164.384 19.8995 163.672 20.3642 163.238 20.798C162.68 21.3557 162.277 22.2232 162.277 23.1527C162.277 23.8653 162.587 24.6709 163.238 25.3216C163.919 26.0032 164.725 26.2511 165.438 26.2511Z" fill="white"/>
<path d="M148.174 30.0001V16.1505H153.132V18.4123C153.627 17.4828 154.34 16.8631 155.084 16.4913C155.827 16.0885 156.726 15.9336 157.655 15.9336C157.779 15.9336 157.996 15.9646 158.647 15.9956V20.6741C158.399 20.5501 157.717 20.1783 156.509 20.1783C155.858 20.1783 154.96 20.2713 154.247 20.9219C153.194 21.8824 153.132 23.3387 153.132 24.0823V30.0001H148.174Z" fill="white"/>
<path d="M142.901 17.4828V16.1505H147.858V30.0002H142.901V28.482C141.754 30.0622 139.957 30.4649 138.594 30.4649C137.107 30.4649 135.279 30.0312 133.606 28.2651C132.273 26.8399 131.623 25.2597 131.623 23.1838C131.623 20.5812 132.645 18.7532 133.76 17.6378C134.938 16.4604 136.766 15.6858 138.749 15.6858C140.98 15.6858 142.312 16.8322 142.901 17.4828ZM139.864 19.8996C139.245 19.8996 138.408 20.1164 137.695 20.7981C137.014 21.4487 136.704 22.3473 136.704 23.0599C136.704 23.8654 137.045 24.733 137.664 25.3217C138.191 25.8174 139.059 26.2512 139.895 26.2512C140.701 26.2512 141.506 25.9104 142.126 25.2907C142.56 24.8569 143.055 24.1753 143.055 23.0599C143.055 22.4092 142.87 21.5417 142.095 20.7981C141.63 20.3643 140.918 19.8996 139.864 19.8996Z" fill="white"/>
<path d="M126.904 16.1503H131.862V29.1325C131.862 31.2083 131.676 33.0983 129.972 34.8644C128.206 36.6615 125.882 37.0952 123.868 37.0952C121.296 37.0952 119.158 36.4446 117.392 34.6475C116.587 33.811 116.06 32.9744 115.874 31.7661H121.389C121.575 32.3238 122.071 33.1913 123.713 33.1913C124.488 33.1913 125.262 33.0364 125.913 32.4167C126.749 31.6421 126.904 30.6506 126.904 29.8451V28.4508C125.355 30.0929 123.868 30.2788 122.753 30.2788C120.212 30.2788 118.57 29.2874 117.64 28.3269C116.401 27.0566 115.719 25.1666 115.719 23.2766C115.719 21.1077 116.556 19.1248 117.764 17.8544C119.096 16.4602 120.955 15.7476 122.783 15.7476C123.651 15.7476 125.448 15.9335 126.904 17.5756V16.1503ZM123.961 19.8684C123.124 19.8684 122.412 20.1472 121.761 20.7979C121.048 21.5415 120.801 22.378 120.801 23.0287C120.801 23.8343 121.141 24.6708 121.761 25.2905C122.412 25.9411 123.248 26.189 123.992 26.189C124.766 26.189 125.634 25.8482 126.223 25.2595C126.842 24.6398 127.152 23.7413 127.152 23.0287C127.152 22.3161 126.749 21.3556 126.161 20.7669C125.603 20.2092 124.797 19.8684 123.961 19.8684Z" fill="white"/>
<path d="M116.512 23.4625V23.9892H106.195C106.195 24.7328 106.474 25.7243 107.062 26.3129C107.372 26.6228 107.992 26.9946 109.107 26.9946C109.231 26.9946 110.099 26.9636 110.718 26.6228C111.028 26.4369 111.369 26.127 111.586 25.6933H116.326C116.109 26.4679 115.676 27.5523 114.653 28.5438C113.631 29.5352 112.02 30.4647 109.014 30.4647C107.186 30.4647 104.986 30.062 103.282 28.3579C102.384 27.4593 101.237 25.7552 101.237 23.1216C101.237 20.7979 102.105 18.9389 103.313 17.7615C104.46 16.6461 106.257 15.7476 108.983 15.7476C110.594 15.7476 112.67 16.0884 114.312 17.6376C116.264 19.4966 116.512 21.9133 116.512 23.4625ZM106.35 21.1387H111.958C111.834 20.612 111.524 20.0233 111.152 19.6515C110.501 19.0008 109.603 18.9079 109.107 18.9079C108.271 18.9079 107.62 19.1248 107.093 19.6515C106.752 20.0233 106.443 20.519 106.35 21.1387Z" fill="white"/>
<path d="M96.55 16.1503H101.507V29.1325C101.507 31.2083 101.322 33.0983 99.6174 34.8644C97.8514 36.6615 95.5276 37.0952 93.5137 37.0952C90.942 37.0952 88.8042 36.4446 87.0381 34.6475C86.2325 33.811 85.7058 32.9744 85.5199 31.7661H91.035C91.2209 32.3238 91.7166 33.1913 93.3587 33.1913C94.1333 33.1913 94.9079 33.0364 95.5586 32.4167C96.3951 31.6421 96.55 30.6506 96.55 29.8451V28.4508C95.0009 30.0929 93.5137 30.2788 92.3983 30.2788C89.8576 30.2788 88.2155 29.2874 87.286 28.3269C86.0466 27.0566 85.365 25.1666 85.365 23.2766C85.365 21.1077 86.2015 19.1248 87.4099 17.8544C88.7422 16.4602 90.6012 15.7476 92.4292 15.7476C93.2968 15.7476 95.0938 15.9335 96.55 17.5756V16.1503ZM93.6066 19.8684C92.7701 19.8684 92.0574 20.1472 91.4068 20.7979C90.6942 21.5415 90.4463 22.378 90.4463 23.0287C90.4463 23.8343 90.7871 24.6708 91.4068 25.2905C92.0574 25.9411 92.894 26.189 93.6376 26.189C94.4122 26.189 95.2797 25.8482 95.8684 25.2595C96.4881 24.6398 96.7979 23.7413 96.7979 23.0287C96.7979 22.3161 96.3951 21.3556 95.8064 20.7669C95.2487 20.2092 94.4432 19.8684 93.6066 19.8684Z" fill="white"/>
<path d="M80.649 17.4828V16.1505H85.6063V30.0002H80.649V28.482C79.5026 30.0622 77.7055 30.4649 76.3423 30.4649C74.8551 30.4649 73.027 30.0312 71.3539 28.2651C70.0216 26.8399 69.371 25.2597 69.371 23.1838C69.371 20.5812 70.3934 18.7532 71.5088 17.6378C72.6862 16.4604 74.5142 15.6858 76.4972 15.6858C78.728 15.6858 80.0603 16.8322 80.649 17.4828ZM77.6126 19.8996C76.9929 19.8996 76.1564 20.1164 75.4437 20.7981C74.7621 21.4487 74.4523 22.3473 74.4523 23.0599C74.4523 23.8654 74.7931 24.733 75.4128 25.3217C75.9395 25.8174 76.807 26.2512 77.6436 26.2512C78.4492 26.2512 79.2547 25.9104 79.8744 25.2907C80.3082 24.8569 80.8039 24.1753 80.8039 23.0599C80.8039 22.4092 80.618 21.5417 79.8434 20.7981C79.3787 20.3643 78.666 19.8996 77.6126 19.8996Z" fill="white"/>
<path d="M56.0076 9.33398V17.0489H63.7535V9.33398H69.1446V30H63.7535V21.6345H56.0076V30H50.6475V9.33398H56.0076Z" fill="white"/>
<path fill-rule="evenodd" clip-rule="evenodd" d="M41 20.5C41 31.8218 31.8218 41 20.5 41C9.17816 41 0 31.8218 0 20.5C0 9.17816 9.17816 0 20.5 0C31.8218 0 41 9.17816 41 20.5ZM22.8556 9.45781H22.9637L32 29.9107H26.8778L20.3812 15.0991L13.8846 29.9107H8.76236L17.7987 9.45776H22.8556L22.8556 9.45781Z" fill="white"/>
</svg>
