<svg width="62" height="49" viewBox="0 0 62 49" fill="none" xmlns="http://www.w3.org/2000/svg">
<path fill-rule="evenodd" clip-rule="evenodd" d="M40.3552 4.16868C40.4909 3.7666 40.5436 3.34164 40.5102 2.91899C40.4769 2.49635 40.3582 2.08465 40.1611 1.70831C39.964 1.33197 39.6926 0.998666 39.3629 0.728167C39.0333 0.457667 38.6521 0.255486 38.242 0.133619C37.832 0.011752 37.4014 -0.0273171 36.9758 0.0187285C36.5502 0.0647741 36.1383 0.194996 35.7645 0.40167C35.3906 0.608343 35.0626 0.887257 34.7997 1.22186C34.5368 1.55647 34.3445 1.93995 34.2341 2.34955L21.4464 44.5568C21.2381 45.35 21.3486 46.1922 21.7546 46.9063C22.1606 47.6205 22.8305 48.1509 23.6234 48.386C24.4163 48.6211 25.2703 48.5425 26.0059 48.1669C26.7415 47.7912 27.3012 47.1477 27.5675 46.3717L40.3552 4.16446V4.16868ZM16.1097 11.5718C16.7084 12.1654 17.0446 12.9699 17.0446 13.8088C17.0446 14.6477 16.7084 15.4523 16.1097 16.0458L7.71243 24.3606L16.1097 32.6755C16.6744 33.2756 16.9818 34.0692 16.9672 34.8893C16.9526 35.7094 16.6171 36.4919 16.0314 37.0719C15.4456 37.6519 14.6554 37.9841 13.8272 37.9986C12.999 38.013 12.1974 37.7086 11.5914 37.1494L0.934952 26.5976C0.336272 26.0041 0 25.1995 0 24.3606C0 23.5218 0.336272 22.7172 0.934952 22.1237L11.5914 11.5718C12.1908 10.979 13.0033 10.6461 13.8505 10.6461C14.6977 10.6461 15.5103 10.979 16.1097 11.5718ZM45.6919 37.1494C45.0932 36.5559 44.757 35.7513 44.757 34.9125C44.757 34.0736 45.0932 33.269 45.6919 32.6755L54.0892 24.3606L45.6919 16.0458C45.1272 15.4457 44.8198 14.652 44.8344 13.8319C44.849 13.0118 45.1845 12.2294 45.7703 11.6494C46.356 11.0694 47.1462 10.7372 47.9744 10.7227C48.8027 10.7083 49.6042 11.0127 50.2102 11.5718L60.8667 22.1237C61.4653 22.7172 61.8016 23.5218 61.8016 24.3606C61.8016 25.1995 61.4653 26.0041 60.8667 26.5976L50.2102 37.1494C49.6108 37.7422 48.7983 38.0752 47.9511 38.0752C47.1039 38.0752 46.2913 37.7422 45.6919 37.1494Z" fill="white" fill-opacity="0.5"/>
</svg>
