<svg width="24" height="24" viewBox="0 0 24 24" fill="none" xmlns="http://www.w3.org/2000/svg">
<path d="M14.1286 14.9268C15.048 17.6511 15.6662 20.4679 15.9722 23.3268C14.6954 23.7737 13.3522 24.0013 11.9995 24C9.6197 24.0036 7.29307 23.2966 5.31783 21.9696C6.23822 20.2644 7.49256 18.7619 9.00608 17.5518C10.5196 16.3416 12.2613 15.4484 14.1274 14.9256L14.1286 14.9268ZM23.4892 15.4824C22.6321 18.2979 20.7725 20.7015 18.2622 22.2384C17.9266 19.6013 17.3398 17.0023 16.5099 14.4768C18.8836 14.2315 21.2812 14.577 23.4892 15.4824ZM12.1735 10.182C12.572 10.9956 12.9452 11.826 13.2897 12.6696C9.13286 13.8877 5.60517 16.66 3.43948 20.4108C2.22253 19.164 1.28932 17.6691 0.70371 16.0284C0.118097 14.3876 -0.1061 12.6398 0.0464604 10.9044C4.0588 11.754 8.29197 11.5068 12.1735 10.182ZM21.2652 4.3728C23.2648 6.81436 24.2297 9.9412 23.9536 13.0848C21.3134 12.0912 18.4665 11.7735 15.6721 12.1608C15.2863 11.186 14.864 10.2262 14.4059 9.2832C16.9772 8.08595 19.3032 6.42082 21.2652 4.3728ZM6.31761 1.428C8.1112 3.46204 9.69174 5.67438 11.0345 8.0304C7.62803 9.11514 3.99754 9.29299 0.501344 8.5464C1.42151 5.49753 3.51305 2.93774 6.31761 1.428ZM11.9995 2.82286e-06C14.8656 2.82286e-06 17.4977 1.0044 19.5608 2.6808C17.7743 4.55417 15.6483 6.07143 13.2957 7.152C11.9707 4.78056 10.4191 2.54292 8.66284 0.470402C9.7474 0.157587 10.8707 -0.000771083 11.9995 2.82286e-06Z" fill="white" fill-opacity="0.5"/>
</svg>
