<svg width="324" height="73" viewBox="0 0 324 73" fill="none" xmlns="http://www.w3.org/2000/svg">
<path d="M318.367 54.3076C317.164 54.3076 315.687 53.9248 314.375 52.6122C313.664 51.9013 312.679 50.5887 312.679 48.6199C312.679 46.6511 313.664 45.3386 314.375 44.6276C315.687 43.3151 317.164 42.9323 318.367 42.9323C319.734 42.9323 321.211 43.4791 322.414 44.6823C323.344 45.612 324 46.8152 324 48.6199C324 50.4247 323.344 51.6278 322.359 52.6122C321.211 53.7607 319.789 54.3076 318.367 54.3076Z" fill="#FFB800"/>
<path d="M307.035 13.4003V53.2687H298.285V50.5889C295.824 53.7609 292.597 54.089 290.902 54.089C287.402 54.089 284.612 52.9406 282.316 50.6983C279.855 48.292 278.378 44.8466 278.378 40.9636C278.378 36.8072 280.128 33.4165 282.37 31.2836C284.777 28.9867 288.003 28.0023 291.011 28.0023C294.347 28.0023 296.699 29.4789 298.285 31.1743V13.4003H307.035ZM292.925 46.6513C294.347 46.6513 295.769 45.995 296.699 45.1747C297.847 44.1356 298.558 42.4949 298.558 41.0183C298.558 39.6511 297.793 38.0104 296.918 37.0807C295.933 36.0416 294.566 35.44 292.925 35.44C291.066 35.44 289.808 36.2603 289.042 37.026C288.058 38.0104 287.347 39.5417 287.347 41.1824C287.347 42.4402 287.894 43.8621 289.042 45.0106C290.245 46.2138 291.667 46.6513 292.925 46.6513Z" fill="white"/>
<path d="M262.454 53.2687V28.8226H271.204V32.815C272.079 31.1743 273.337 30.0805 274.649 29.4242C275.962 28.7133 277.548 28.4398 279.189 28.4398C279.407 28.4398 279.79 28.4945 280.939 28.5492V36.8073C280.501 36.5885 279.298 35.9322 277.165 35.9322C276.017 35.9322 274.431 36.0963 273.173 37.2448C271.313 38.9401 271.204 41.5105 271.204 42.8231V53.2687H262.454Z" fill="white"/>
<path d="M253.145 31.1742V28.8225H261.895V53.2686H253.145V50.5888C251.122 53.378 247.95 54.0889 245.543 54.0889C242.918 54.0889 239.692 53.3233 236.738 50.206C234.387 47.6903 233.238 44.9012 233.238 41.237C233.238 36.6431 235.043 33.4164 237.012 31.4476C239.09 29.3694 242.317 28.0022 245.817 28.0022C249.754 28.0022 252.106 30.0257 253.145 31.1742ZM247.786 35.4399C246.692 35.4399 245.215 35.8228 243.957 37.0259C242.754 38.1744 242.207 39.7604 242.207 41.0182C242.207 42.4401 242.809 43.9714 243.903 45.0105C244.832 45.8856 246.364 46.6512 247.84 46.6512C249.262 46.6512 250.684 46.0496 251.778 44.9558C252.544 44.1902 253.419 42.987 253.419 41.0182C253.419 39.8698 253.09 38.3385 251.723 37.0259C250.903 36.2603 249.645 35.4399 247.786 35.4399Z" fill="white"/>
<path d="M224.91 28.8227H233.66V51.7374C233.66 55.4016 233.332 58.7376 230.324 61.8549C227.207 65.0269 223.105 65.7926 219.55 65.7926C215.011 65.7926 211.237 64.6441 208.12 61.4721C206.698 59.9955 205.769 58.5189 205.44 56.386H215.175C215.503 57.3704 216.378 58.9017 219.277 58.9017C220.644 58.9017 222.011 58.6283 223.16 57.5345C224.636 56.1673 224.91 54.4172 224.91 52.9953V50.5343C222.175 53.4328 219.55 53.7609 217.581 53.7609C213.097 53.7609 210.198 52.0109 208.558 50.3155C206.37 48.0733 205.167 44.7372 205.167 41.4012C205.167 37.5729 206.644 34.0728 208.776 31.8306C211.128 29.3695 214.409 28.1117 217.636 28.1117C219.167 28.1117 222.339 28.4398 224.91 31.3384V28.8227ZM219.714 35.3854C218.238 35.3854 216.98 35.8776 215.831 37.026C214.574 38.3386 214.136 39.8152 214.136 40.9637C214.136 42.3856 214.738 43.8622 215.831 44.956C216.98 46.1044 218.456 46.542 219.769 46.542C221.136 46.542 222.668 45.9404 223.707 44.9013C224.8 43.8075 225.347 42.2215 225.347 40.9637C225.347 39.7058 224.636 38.0104 223.597 36.9713C222.613 35.9869 221.191 35.3854 219.714 35.3854Z" fill="white"/>
<path d="M206.567 41.7293V42.659H188.355C188.355 43.9716 188.847 45.7216 189.886 46.7607C190.433 47.3076 191.527 47.9639 193.496 47.9639C193.715 47.9639 195.246 47.9092 196.34 47.3076C196.887 46.9795 197.488 46.4326 197.871 45.6669H206.238C205.856 47.0342 205.09 48.9483 203.285 50.6983C201.48 52.4484 198.637 54.0891 193.332 54.0891C190.105 54.0891 186.222 53.3781 183.214 50.3702C181.628 48.7842 179.605 45.7763 179.605 41.1277C179.605 37.026 181.136 33.7447 183.269 31.6665C185.292 29.6977 188.464 28.1117 193.277 28.1117C196.121 28.1117 199.785 28.7133 202.684 31.4477C206.129 34.7291 206.567 38.9948 206.567 41.7293ZM188.628 37.6276H198.527C198.308 36.6979 197.762 35.6588 197.105 35.0025C195.957 33.8541 194.371 33.69 193.496 33.69C192.019 33.69 190.871 34.0728 189.941 35.0025C189.339 35.6588 188.793 36.5338 188.628 37.6276Z" fill="white"/>
<path d="M171.331 28.8227H180.082V51.7374C180.082 55.4016 179.754 58.7376 176.746 61.8549C173.628 65.0269 169.527 65.7926 165.972 65.7926C161.433 65.7926 157.659 64.6441 154.542 61.4721C153.12 59.9955 152.19 58.5189 151.862 56.386H161.597C161.925 57.3704 162.8 58.9017 165.698 58.9017C167.066 58.9017 168.433 58.6283 169.581 57.5345C171.058 56.1673 171.331 54.4172 171.331 52.9953V50.5343C168.597 53.4328 165.972 53.7609 164.003 53.7609C159.519 53.7609 156.62 52.0109 154.979 50.3155C152.792 48.0733 151.589 44.7372 151.589 41.4012C151.589 37.5729 153.065 34.0728 155.198 31.8306C157.55 29.3695 160.831 28.1117 164.058 28.1117C165.589 28.1117 168.761 28.4398 171.331 31.3384V28.8227ZM166.136 35.3854C164.659 35.3854 163.401 35.8776 162.253 37.026C160.995 38.3386 160.558 39.8152 160.558 40.9637C160.558 42.3856 161.159 43.8622 162.253 44.956C163.401 46.1044 164.878 46.542 166.191 46.542C167.558 46.542 169.089 45.9404 170.128 44.9013C171.222 43.8075 171.769 42.2215 171.769 40.9637C171.769 39.7058 171.058 38.0104 170.019 36.9713C169.034 35.9869 167.613 35.3854 166.136 35.3854Z" fill="white"/>
<path d="M143.264 31.1742V28.8225H152.015V53.2686H143.264V50.5888C141.241 53.378 138.069 54.0889 135.662 54.0889C133.037 54.0889 129.811 53.3233 126.858 50.206C124.506 47.6903 123.357 44.9012 123.357 41.237C123.357 36.6431 125.162 33.4164 127.131 31.4476C129.209 29.3694 132.436 28.0022 135.936 28.0022C139.874 28.0022 142.225 30.0257 143.264 31.1742ZM137.905 35.4399C136.811 35.4399 135.334 35.8228 134.077 37.0259C132.873 38.1744 132.326 39.7604 132.326 41.0182C132.326 42.4401 132.928 43.9714 134.022 45.0105C134.952 45.8856 136.483 46.6512 137.959 46.6512C139.381 46.6512 140.803 46.0496 141.897 44.9558C142.663 44.1902 143.538 42.987 143.538 41.0182C143.538 39.8698 143.21 38.3385 141.842 37.0259C141.022 36.2603 139.764 35.4399 137.905 35.4399Z" fill="white"/>
<path d="M99.7698 16.791V30.4086H113.442V16.791H122.958V53.2687H113.442V38.5026H99.7698V53.2687H90.3086V16.791H99.7698Z" fill="white"/>
<path fill-rule="evenodd" clip-rule="evenodd" d="M73.2799 36.4999C73.2799 56.4842 57.0795 72.6846 37.0953 72.6846C17.1111 72.6846 0.910645 56.4842 0.910645 36.4999C0.910645 16.5157 17.1111 0.315308 37.0953 0.315308C57.0795 0.315308 73.2799 16.5157 73.2799 36.4999ZM41.2531 17.0093H41.444L57.394 53.1109H48.3528L36.8855 26.9669L25.4183 53.1108H16.3771L32.3271 17.0092H41.2531L41.2531 17.0093Z" fill="white"/>
</svg>
