<svg width="24" height="24" viewBox="0 0 24 24" fill="none" xmlns="http://www.w3.org/2000/svg">
<path d="M18.7059 8.11766V15.5294C18.7059 15.8102 18.5943 16.0796 18.3957 16.2781C18.1972 16.4767 17.9279 16.5882 17.647 16.5882H5.99999C5.71917 16.5882 5.44985 16.4767 5.25128 16.2781C5.05272 16.0796 4.94116 15.8102 4.94116 15.5294V8.11766M18.7059 8.11766C18.7059 7.83684 18.5943 7.56753 18.3957 7.36896C18.1972 7.17039 17.9279 7.05884 17.647 7.05884H5.99999C5.71917 7.05884 5.44985 7.17039 5.25128 7.36896C5.05272 7.56753 4.94116 7.83684 4.94116 8.11766M18.7059 8.11766L12.426 12.4652C12.249 12.5877 12.0388 12.6533 11.8235 12.6533C11.6082 12.6533 11.3981 12.5877 11.221 12.4652L4.94116 8.11766" stroke="white" stroke-width="1.25707" stroke-linecap="round" stroke-linejoin="round"/>
<circle cx="12" cy="12" r="11.5" stroke="white"/>
</svg>
