<svg width="35" height="35" viewBox="0 0 35 35" fill="none" xmlns="http://www.w3.org/2000/svg">
<path fill-rule="evenodd" clip-rule="evenodd" d="M7.99721 9.81745C8.39686 9.41009 8.93759 9.18237 9.50012 9.18237H26.0001C26.5627 9.18237 27.1034 9.41009 27.503 9.81745C27.9029 10.225 28.1287 10.7792 28.1287 11.3584V22.0611C28.1287 22.6403 27.9029 23.1944 27.503 23.602C27.1034 24.0093 26.5627 24.2371 26.0001 24.2371H9.50012C8.93758 24.2371 8.39686 24.0093 7.99721 23.602C7.59736 23.1944 7.37158 22.6403 7.37158 22.0611V11.3584C7.37158 10.7792 7.59736 10.225 7.99721 9.81745ZM9.50012 10.4764C9.267 10.4764 9.04467 10.5709 8.8817 10.737C8.79216 10.8283 8.72455 10.937 8.68185 11.055L17.2519 17.1025C17.3977 17.2054 17.5715 17.2609 17.7501 17.2609C17.9287 17.2609 18.1025 17.2054 18.2484 17.1025L26.8184 11.055C26.7757 10.937 26.7081 10.8283 26.6185 10.737C26.4556 10.5709 26.2332 10.4764 26.0001 10.4764H9.50012ZM26.8716 12.5863L18.959 18.1699C18.6032 18.4209 18.1815 18.5549 17.7501 18.5549C17.3188 18.5549 16.8971 18.4209 16.5414 18.17L8.62866 12.5863V22.0611C8.62866 22.2929 8.71895 22.5166 8.8817 22.6825C9.04467 22.8486 9.267 22.943 9.50012 22.943H26.0001C26.2332 22.943 26.4556 22.8486 26.6185 22.6825C26.7813 22.5166 26.8716 22.2929 26.8716 22.0611V12.5863Z" fill="#E5A500"/>
<path fill-rule="evenodd" clip-rule="evenodd" d="M17.5 33.9706C26.6402 33.9706 34 26.5685 34 17.5C34 8.43147 26.6402 1.02941 17.5 1.02941C8.35978 1.02941 1 8.43147 1 17.5C1 26.5685 8.35978 33.9706 17.5 33.9706ZM17.5 35C27.165 35 35 27.165 35 17.5C35 7.83502 27.165 0 17.5 0C7.83502 0 0 7.83502 0 17.5C0 27.165 7.83502 35 17.5 35Z" fill="#E5A500"/>
</svg>
