<svg width="35" height="34" viewBox="0 0 35 34" fill="none" xmlns="http://www.w3.org/2000/svg">
<path d="M8.90027 17.4858L26 17.4858M14.6002 24L8.086 17.4858L14.6002 10.9716" stroke="#E5A500" stroke-width="1.42414" stroke-linecap="round" stroke-linejoin="round"/>
<path fill-rule="evenodd" clip-rule="evenodd" d="M17.5 33C8.35978 33 1 25.8094 1 17C1 8.19057 8.35978 1 17.5 1C26.6402 1 34 8.19057 34 17C34 25.8094 26.6402 33 17.5 33ZM17.5 34C7.83502 34 0 26.3888 0 17C0 7.61116 7.83502 0 17.5 0C27.165 0 35 7.61116 35 17C35 26.3888 27.165 34 17.5 34Z" fill="#E5A500"/>
</svg>
