<svg width="63" height="62" viewBox="0 0 63 62" fill="none" xmlns="http://www.w3.org/2000/svg">
<path d="M4 31.2301C4 34.806 4.71131 38.3469 6.09331 41.6506C7.47532 44.9543 9.50095 47.9561 12.0546 50.4846C14.6082 53.0132 17.6398 55.0189 20.9762 56.3874C24.3127 57.7558 27.8886 58.4601 31.5 58.4601C35.1114 58.4601 38.6873 57.7558 42.0238 56.3874C45.3602 55.0189 48.3918 53.0132 50.9454 50.4846C53.499 47.9561 55.5247 44.9543 56.9067 41.6506C58.2887 38.3469 59 34.806 59 31.2301C59 27.6542 58.2887 24.1133 56.9067 20.8096C55.5247 17.5059 53.499 14.504 50.9454 11.9755C48.3918 9.44696 45.3602 7.4412 42.0238 6.07277C38.6873 4.70433 35.1114 4 31.5 4C27.8886 4 24.3127 4.70433 20.9762 6.07277C17.6398 7.4412 14.6082 9.44696 12.0546 11.9755C9.50095 14.504 7.47532 17.5059 6.09331 20.8096C4.71131 24.1133 4 27.6542 4 31.2301Z" stroke="white" stroke-opacity="0.5" stroke-width="6.11111" stroke-linecap="round" stroke-linejoin="round"/>
<path d="M16.2222 25.1787V31.2298C16.2222 32.8347 16.866 34.3738 18.0121 35.5086C19.1581 36.6434 20.7125 37.281 22.3333 37.281C23.954 37.281 25.5084 36.6434 26.6545 35.5086C27.8005 34.3738 28.4444 32.8347 28.4444 31.2298V25.1787M37.6111 25.1787L46.7777 37.281M37.6111 37.281L46.7777 25.1787" stroke="white" stroke-opacity="0.5" stroke-width="6.11111" stroke-linecap="round" stroke-linejoin="round"/>
</svg>
